<svg xmlns="http://www.w3.org/2000/svg" viewBox="0 0 320 80" width="320" height="80">
  <rect width="320" height="80" fill="#f8fafc"/>
  <polygon points="30,55 30,25 30,25" fill="#1e293b"/>
  <line x1="30" y1="25" x2="30" y2="55" stroke="#1e293b" stroke-width="4"/>
  <polygon points="30,25 20,40 40,40" fill="#1e293b"/>
  <polygon points="90,40 90,40 90,40" fill="#1e293b"/>
  <line x1="75" y1="40" x2="105" y2="40" stroke="#1e293b" stroke-width="4"/>
  <polygon points="105,40 90,30 90,50" fill="#1e293b"/>
  <polygon points="150,55 150,25 150,25" fill="#1e293b"/>
  <line x1="150" y1="55" x2="150" y2="25" stroke="#1e293b" stroke-width="4"/>
  <polygon points="150,55 140,45 160,45" fill="#1e293b"/>
  <polygon points="210,40 210,40 210,40" fill="#1e293b"/>
  <line x1="225" y1="40" x2="195" y2="40" stroke="#1e293b" stroke-width="4"/>
  <polygon points="195,40 205,30 205,50" fill="#1e293b"/>
  <text x="260" y="46" font-size="28" fill="#64748b" font-family="sans-serif">?</text>
</svg>
